<svg id="visual" viewBox="0 0 900 600" width="900" height="600" xmlns="http://www.w3.org/2000/svg" xmlns:xlink="http://www.w3.org/1999/xlink" version="1.1"><path d="M0 61L13.7 60C27.3 59 54.7 57 82 64C109.3 71 136.7 87 163.8 92C191 97 218 91 245.2 100C272.3 109 299.7 133 327 128C354.3 123 381.7 89 409 78C436.3 67 463.7 79 491 80C518.3 81 545.7 71 573 79C600.3 87 627.7 113 654.8 118C682 123 709 107 736.2 109C763.3 111 790.7 131 818 129C845.3 127 872.7 103 886.3 91L900 79L900 0L886.3 0C872.7 0 845.3 0 818 0C790.7 0 763.3 0 736.2 0C709 0 682 0 654.8 0C627.7 0 600.3 0 573 0C545.7 0 518.3 0 491 0C463.7 0 436.3 0 409 0C381.7 0 354.3 0 327 0C299.7 0 272.3 0 245.2 0C218 0 191 0 163.8 0C136.7 0 109.3 0 82 0C54.7 0 27.3 0 13.7 0L0 0Z" fill="#6198ff"></path><path d="M0 337L13.7 313C27.3 289 54.7 241 82 230C109.3 219 136.7 245 163.8 242C191 239 218 207 245.2 211C272.3 215 299.7 255 327 279C354.3 303 381.7 311 409 315C436.3 319 463.7 319 491 314C518.3 309 545.7 299 573 293C600.3 287 627.7 285 654.8 299C682 313 709 343 736.2 353C763.3 363 790.7 353 818 327C845.3 301 872.7 259 886.3 238L900 217L900 77L886.3 89C872.7 101 845.3 125 818 127C790.7 129 763.3 109 736.2 107C709 105 682 121 654.8 116C627.7 111 600.3 85 573 77C545.7 69 518.3 79 491 78C463.7 77 436.3 65 409 76C381.7 87 354.3 121 327 126C299.7 131 272.3 107 245.2 98C218 89 191 95 163.8 90C136.7 85 109.3 69 82 62C54.7 55 27.3 57 13.7 58L0 59Z" fill="#3c80ff"></path><path d="M0 385L13.7 368C27.3 351 54.7 317 82 310C109.3 303 136.7 323 163.8 318C191 313 218 283 245.2 283C272.3 283 299.7 313 327 337C354.3 361 381.7 379 409 387C436.3 395 463.7 393 491 384C518.3 375 545.7 359 573 351C600.3 343 627.7 343 654.8 356C682 369 709 395 736.2 408C763.3 421 790.7 421 818 407C845.3 393 872.7 365 886.3 351L900 337L900 215L886.3 236C872.7 257 845.3 299 818 325C790.7 351 763.3 361 736.2 351C709 341 682 311 654.8 297C627.7 283 600.3 285 573 291C545.7 297 518.3 307 491 312C463.7 317 436.3 317 409 313C381.7 309 354.3 301 327 277C299.7 253 272.3 213 245.2 209C218 205 191 237 163.8 240C136.7 243 109.3 217 82 228C54.7 239 27.3 287 13.7 311L0 335Z" fill="#0066ff"></path><path d="M0 439L13.7 423C27.3 407 54.7 375 82 373C109.3 371 136.7 399 163.8 401C191 403 218 379 245.2 381C272.3 383 299.7 411 327 427C354.3 443 381.7 447 409 452C436.3 457 463.7 463 491 456C518.3 449 545.7 429 573 416C600.3 403 627.7 397 654.8 408C682 419 709 447 736.2 462C763.3 477 790.7 479 818 471C845.3 463 872.7 445 886.3 436L900 427L900 335L886.3 349C872.7 363 845.3 391 818 405C790.7 419 763.3 419 736.2 406C709 393 682 367 654.8 354C627.7 341 600.3 341 573 349C545.7 357 518.3 373 491 382C463.7 391 436.3 393 409 385C381.7 377 354.3 359 327 335C299.7 311 272.3 281 245.2 281C218 281 191 311 163.8 316C136.7 321 109.3 301 82 308C54.7 315 27.3 349 13.7 366L0 383Z" fill="#0059dd"></path><path d="M0 601L13.7 601C27.3 601 54.7 601 82 601C109.3 601 136.7 601 163.8 601C191 601 218 601 245.2 601C272.3 601 299.7 601 327 601C354.3 601 381.7 601 409 601C436.3 601 463.7 601 491 601C518.3 601 545.7 601 573 601C600.3 601 627.7 601 654.8 601C682 601 709 601 736.2 601C763.3 601 790.7 601 818 601C845.3 601 872.7 601 886.3 601L900 601L900 425L886.3 434C872.7 443 845.3 461 818 469C790.7 477 763.3 475 736.2 460C709 445 682 417 654.8 406C627.7 395 600.3 401 573 414C545.7 427 518.3 447 491 454C463.7 461 436.3 455 409 450C381.7 445 354.3 441 327 425C299.7 409 272.3 381 245.2 379C218 377 191 401 163.8 399C136.7 397 109.3 369 82 371C54.7 373 27.3 405 13.7 421L0 437Z" fill="#004cbb"></path></svg>